<svg id="_Logo" data-name="• Logo" xmlns="http://www.w3.org/2000/svg" width="51" height="63" viewBox="0 0 51 63">
  <defs>
    <style>
      .cls-1, .cls-2 {
        fill-rule: evenodd;
      }

      .cls-2 {
        fill: #79c709;
      }
    </style>
  </defs>
  <path class="cls-1" d="M25.549,62.978L25.5,63l-0.05-.02C-1.077,52.633.012,40.688,0.012,40.688L0.007,5.713C6.933,0.5,24,.034,25.448,0V0h0.1V0c1.444,0.031,18.516.5,25.442,5.711L50.985,40.688S52.074,52.633,25.549,62.978Z"/>
  <path class="cls-2" d="M34.609,15.2V15.187H18.361c-6.988,0-6.988,7.323-6.988,7.323,0,5.59,3.649,6.9,5.016,7.2H11.118v5.338c0,3.895,2.811,4.63,4.515,4.717v0.05H16.9V29.792l0.024-6.086c0-3.539,4.554-3.346,4.554-3.346H33.341V25.2H22.107V30.38H33.323l0,0.915c0,3.541-4.553,3.347-4.553,3.347H22.107v5.174H31.88c6.987,0,6.987-7.326,6.987-7.326,0-6.093-4-7.055-4.983-7.206l5.236-.012v-5.35C39.119,16.023,36.31,15.289,34.609,15.2Z"/>
</svg>
